<svg width="36" height="35" viewBox="0 0 36 35" fill="none" xmlns="http://www.w3.org/2000/svg">
<path d="M3 2.5H8.45455L12.1091 21.6286C12.2338 22.2863 12.5753 22.8771 13.0739 23.2976C13.5725 23.7181 14.1964 23.9414 14.8364 23.9286H28.0909C28.7309 23.9414 29.3548 23.7181 29.8533 23.2976C30.3519 22.8771 30.6935 22.2863 30.8182 21.6286L33 9.64286H9.81818M15.2727 31.0714C15.2727 31.8604 14.6622 32.5 13.9091 32.5C13.156 32.5 12.5455 31.8604 12.5455 31.0714C12.5455 30.2825 13.156 29.6429 13.9091 29.6429C14.6622 29.6429 15.2727 30.2825 15.2727 31.0714ZM30.2727 31.0714C30.2727 31.8604 29.6622 32.5 28.9091 32.5C28.156 32.5 27.5455 31.8604 27.5455 31.0714C27.5455 30.2825 28.156 29.6429 28.9091 29.6429C29.6622 29.6429 30.2727 30.2825 30.2727 31.0714Z" stroke="#3E3E3E" stroke-width="5" stroke-linecap="round" stroke-linejoin="round"/>
</svg>
