<svg width="242" height="80" viewBox="0 0 242 80" fill="none" xmlns="http://www.w3.org/2000/svg">
<path d="M120.831 3.16879C125.784 3.16879 130.44 5.08591 133.943 8.5687C137.445 12.0515 139.374 16.6808 139.374 21.6054C139.374 26.53 137.445 31.1593 133.943 34.6421C130.44 38.1249 125.784 40.042 120.831 40.042C115.877 40.042 111.221 38.1249 107.718 34.6421C104.216 31.1593 102.287 26.53 102.287 21.6054C102.287 16.6808 104.216 12.0515 107.718 8.5687C111.221 5.08591 115.877 3.16879 120.831 3.16879ZM120.831 0C108.83 0 99.1002 9.67345 99.1002 21.6054C99.1002 33.5373 108.83 43.2108 120.831 43.2108C132.831 43.2108 142.561 33.5373 142.561 21.6054C142.561 9.67345 132.831 0 120.831 0Z" fill="#3E3E3E"/>
<path d="M96 48.2029C96.4955 48.1223 97.2343 48.0618 98.0528 48.0618C99.064 48.0618 99.7724 48.213 100.258 48.5947C100.662 48.9159 100.885 49.3898 100.885 50.012C100.885 50.8763 100.268 51.4697 99.6811 51.6814V51.7117C100.156 51.9032 100.42 52.3555 100.591 52.9792C100.804 53.7426 101.015 54.6284 101.147 54.8891H99.5696C99.458 54.6975 99.2972 54.1444 99.0944 53.3105C98.9119 52.4664 98.6192 52.2345 97.9919 52.2244H97.5269V54.8891H96V48.2029ZM97.5284 51.1182H98.1354C98.9046 51.1182 99.3595 50.7365 99.3595 50.1431C99.3595 49.5194 98.935 49.2083 98.2266 49.1982C97.8529 49.1982 97.6399 49.2285 97.5284 49.2486V51.1182Z" fill="#3E3E3E"/>
<path d="M106.832 52.3757C106.832 54.1761 105.547 55 104.223 55C102.777 55 101.664 54.0551 101.664 52.4664C101.664 50.8777 102.716 49.8622 104.304 49.8622C105.821 49.8622 106.832 50.8979 106.832 52.3757ZM103.252 52.4261C103.252 53.2701 103.606 53.9039 104.263 53.9039C104.86 53.9039 105.244 53.3105 105.244 52.4261C105.244 51.6915 104.962 50.9483 104.263 50.9483C103.524 50.9483 103.252 51.7016 103.252 52.4261Z" fill="#3E3E3E"/>
<path d="M111.524 54.7695C111.25 54.8905 110.735 54.9914 110.149 54.9914C108.551 54.9914 107.53 54.0263 107.53 52.4779C107.53 51.0405 108.521 49.8637 110.362 49.8637C110.766 49.8637 111.211 49.9343 111.536 50.0552L111.292 51.1917C111.11 51.111 110.837 51.0405 110.433 51.0405C109.625 51.0405 109.099 51.6137 109.108 52.4174C109.108 53.322 109.715 53.7944 110.462 53.7944C110.826 53.7944 111.11 53.7339 111.342 53.6432L111.524 54.7695Z" fill="#3E3E3E"/>
<path d="M113.91 52.0445H113.93C114.042 51.8428 114.164 51.6426 114.284 51.451L115.285 49.9732H117.135L115.365 51.9638L117.387 54.8892H115.496L114.303 52.8683L113.909 53.3509V54.8892H112.373V47.7507H113.91V52.0445Z" fill="#3E3E3E"/>
<path d="M119.544 48.6049C119.544 49.027 119.221 49.3683 118.715 49.3683C118.23 49.3683 117.907 49.027 117.916 48.6049C117.906 48.1627 118.229 47.83 118.724 47.83C119.22 47.8315 119.534 48.1627 119.544 48.6049ZM117.956 54.8892V49.9718H119.493V54.8892H117.956Z" fill="#3E3E3E"/>
<path d="M122.82 48.2029C123.295 48.1223 123.963 48.0618 124.903 48.0618C125.853 48.0618 126.531 48.2433 126.986 48.6048C127.421 48.9462 127.715 49.5094 127.715 50.1734C127.715 50.8374 127.492 51.4005 127.087 51.7822C126.562 52.2748 125.784 52.4967 124.872 52.4967C124.67 52.4967 124.488 52.4866 124.346 52.4664V54.8891H122.82V48.2029ZM124.348 51.2796C124.48 51.3098 124.641 51.3199 124.864 51.3199C125.682 51.3199 126.188 50.9079 126.188 50.2137C126.188 49.59 125.753 49.2184 124.984 49.2184C124.671 49.2184 124.458 49.2486 124.346 49.2789V51.2796H124.348Z" fill="#3E3E3E"/>
<path d="M133.288 52.3757C133.288 54.1761 132.003 55 130.679 55C129.233 55 128.12 54.0551 128.12 52.4664C128.12 50.8777 129.172 49.8622 130.76 49.8622C132.277 49.8622 133.288 50.8979 133.288 52.3757ZM129.708 52.4261C129.708 53.2701 130.062 53.9039 130.719 53.9039C131.316 53.9039 131.7 53.3105 131.7 52.4261C131.7 51.6915 131.416 50.9483 130.719 50.9483C129.98 50.9483 129.708 51.7016 129.708 52.4261Z" fill="#3E3E3E"/>
<path d="M137.98 54.7695C137.708 54.8905 137.192 54.9914 136.605 54.9914C135.007 54.9914 133.986 54.0263 133.986 52.4779C133.986 51.0405 134.977 49.8637 136.818 49.8637C137.222 49.8637 137.667 49.9343 137.992 50.0552L137.748 51.1917C137.566 51.111 137.293 51.0405 136.889 51.0405C136.081 51.0405 135.555 51.6137 135.565 52.4174C135.565 53.322 136.172 53.7944 136.92 53.7944C137.283 53.7944 137.567 53.7339 137.799 53.6432L137.98 54.7695Z" fill="#3E3E3E"/>
<path d="M140.366 52.0445H140.386C140.498 51.8428 140.62 51.6426 140.74 51.451L141.741 49.9732H143.592L141.822 51.9638L143.844 54.8892H141.954L140.76 52.8683L140.366 53.3509V54.8892H138.829V47.7507H140.366V52.0445Z" fill="#3E3E3E"/>
<path d="M146 48.6049C146 49.027 145.677 49.3683 145.171 49.3683C144.686 49.3683 144.363 49.027 144.373 48.6049C144.363 48.1627 144.686 47.83 145.181 47.83C145.675 47.8315 145.988 48.1627 146 48.6049ZM144.412 54.8892V49.9718H145.949V54.8892H144.412Z" fill="#3E3E3E"/>
<path d="M105.795 12.0213C107.22 11.7894 109.342 11.6166 111.698 11.6166C114.605 11.6166 116.641 12.0501 118.037 13.1491C119.201 14.0738 119.84 15.4335 119.84 17.2253C119.84 19.7114 118.066 21.4182 116.379 22.0246V22.111C117.745 22.6598 118.501 23.9619 118.996 25.7537C119.608 27.9517 120.218 30.4953 120.596 31.2472H116.06C115.74 30.6984 115.275 29.1083 114.694 26.7086C114.171 24.2802 113.328 23.6148 111.524 23.5859H110.187V31.2472H105.796V12.0213H105.795ZM110.186 20.4056H111.93C114.14 20.4056 115.449 19.3066 115.449 17.6013C115.449 15.808 114.227 14.9121 112.192 14.8833C111.116 14.8833 110.506 14.9697 110.186 15.0273V20.4056Z" fill="#3E3E3E"/>
<path d="M135.277 31.2487H130.886V24.2802C130.479 24.3378 129.956 24.3666 129.373 24.3666C126.756 24.3666 124.517 23.73 123.005 22.3141C121.842 21.2151 121.201 19.5961 121.201 17.6877C121.201 15.7792 122.045 14.1602 123.295 13.1779C124.603 12.1365 126.551 11.6166 129.285 11.6166C131.99 11.6166 133.909 11.7894 135.275 12.0213V31.2487H135.277ZM130.886 15.1152C130.566 15.0288 129.956 14.9423 129.053 14.9423C126.843 14.9423 125.592 16.0125 125.592 17.8043C125.592 19.7992 127.047 20.9847 129.401 20.9847C130.041 20.9847 130.506 20.9558 130.884 20.8694V15.1152H130.886Z" fill="#3E3E3E"/>
<g clip-path="url(#clip0_22_103)">
<path d="M7.5 65C3.35742 65 0 68.3574 0 72.5C0 76.6426 3.35742 80 7.5 80C11.6426 80 15 76.6426 15 72.5C15 68.3574 11.6426 65 7.5 65ZM7.5 78.5938C4.13965 78.5938 1.40625 75.8601 1.40625 72.5C1.40625 69.1399 4.13965 66.4062 7.5 66.4062C10.8604 66.4062 13.5938 69.1399 13.5938 72.5C13.5938 75.8601 10.8604 78.5938 7.5 78.5938ZM7.47363 70.1562C8.09063 70.1562 8.67246 70.3998 9.10928 70.8412C9.38394 71.115 9.82793 71.1195 10.1045 70.8458C10.3801 70.572 10.3819 70.1271 10.1091 69.8506C9.40594 69.141 8.46991 68.7502 7.47381 68.7502C6.4786 68.7502 5.54169 69.141 4.83856 69.8506C3.39012 71.3119 3.39012 73.6885 4.83856 75.1504C5.54169 75.8599 6.4786 76.2508 7.47381 76.2508C8.46991 76.2508 9.40594 75.8599 10.1091 75.1504C10.3819 74.8739 10.3801 74.4291 10.1045 74.1552C9.82799 73.8823 9.38408 73.8851 9.10928 74.1597C8.67246 74.6009 8.09063 74.8447 7.47363 74.8447C6.85576 74.8447 6.27393 74.6012 5.83623 74.1597C4.92979 73.2451 4.92979 71.7565 5.83623 70.8404C6.27539 70.3994 6.85547 70.1562 7.47363 70.1562Z" fill="#3E3E3E"/>
</g>
<path d="M24.036 76H18.504V74.896L19.512 73.984C21.216 72.46 22.044 71.584 22.068 70.672C22.068 70.036 21.684 69.532 20.784 69.532C20.112 69.532 19.524 69.868 19.116 70.18L18.6 68.872C19.188 68.428 20.1 68.068 21.156 68.068C22.92 68.068 23.892 69.1 23.892 70.516C23.892 71.824 22.944 72.868 21.816 73.876L21.096 74.476V74.5H24.036V76ZM28.0163 68.068C30.1043 68.068 30.9203 69.928 30.9203 72.064C30.9203 74.476 29.9483 76.132 27.9563 76.132C25.9403 76.132 25.0522 74.32 25.0403 72.112C25.0403 69.856 26.0003 68.068 28.0163 68.068ZM27.9923 69.448C27.3203 69.448 26.8643 70.3 26.8763 72.112C26.8643 73.9 27.2963 74.752 28.0043 74.752C28.7123 74.752 29.0963 73.864 29.0963 72.088C29.0963 70.36 28.7243 69.448 27.9923 69.448ZM37.3485 76H31.8165V74.896L32.8245 73.984C34.5285 72.46 35.3565 71.584 35.3805 70.672C35.3805 70.036 34.9965 69.532 34.0965 69.532C33.4245 69.532 32.8365 69.868 32.4285 70.18L31.9125 68.872C32.5005 68.428 33.4125 68.068 34.4685 68.068C36.2325 68.068 37.2045 69.1 37.2045 70.516C37.2045 71.824 36.2565 72.868 35.1285 73.876L34.4085 74.476V74.5H37.3485V76ZM38.4248 75.58L38.7968 74.212C39.1208 74.38 39.8648 74.692 40.6088 74.692C41.5568 74.692 42.0368 74.236 42.0368 73.648C42.0368 72.88 41.2688 72.532 40.4648 72.532H39.7208V71.224H40.4288C41.0408 71.212 41.8208 70.984 41.8208 70.324C41.8208 69.856 41.4368 69.508 40.6688 69.508C40.0328 69.508 39.3608 69.784 39.0368 69.976L38.6648 68.656C39.1328 68.356 40.0688 68.068 41.0768 68.068C42.7448 68.068 43.6688 68.944 43.6688 70.012C43.6688 70.84 43.2008 71.488 42.2408 71.824V71.848C43.1768 72.016 43.9328 72.724 43.9328 73.744C43.9328 75.124 42.7208 76.132 40.7408 76.132C39.7327 76.132 38.8808 75.868 38.4248 75.58ZM47.8428 76V68.02C48.4308 67.924 49.3068 67.852 50.2788 67.852C51.4788 67.852 52.3188 68.032 52.8948 68.488C53.3748 68.872 53.6388 69.436 53.6388 70.18C53.6388 71.212 52.9068 71.92 52.2108 72.172V72.208C52.7748 72.436 53.0868 72.976 53.2908 73.72C53.5428 74.632 53.7948 75.688 53.9508 76H52.0788C51.9468 75.772 51.7548 75.112 51.5148 74.116C51.2988 73.108 50.9508 72.832 50.2068 72.82H49.6548V76H47.8428ZM49.6548 69.268V71.5H50.3748C51.2868 71.5 51.8268 71.044 51.8268 70.336C51.8268 69.592 51.3228 69.22 50.4828 69.208C50.0388 69.208 49.7868 69.244 49.6548 69.268ZM57.6921 70C59.4921 70 60.6921 71.236 60.6921 73C60.6921 75.148 59.1681 76.132 57.5961 76.132C55.8801 76.132 54.5601 75.004 54.5601 73.108C54.5601 71.212 55.8081 70 57.6921 70ZM57.6441 71.296C56.7681 71.296 56.4441 72.196 56.4441 73.06C56.4441 74.068 56.8641 74.824 57.6441 74.824C58.3521 74.824 58.8081 74.116 58.8081 73.06C58.8081 72.184 58.4721 71.296 57.6441 71.296ZM66.045 74.512L66.261 75.856C65.937 76 65.325 76.12 64.629 76.12C62.733 76.12 61.521 74.968 61.521 73.12C61.521 71.404 62.697 70 64.881 70C65.361 70 65.889 70.084 66.273 70.228L65.985 71.584C65.769 71.488 65.445 71.404 64.965 71.404C64.005 71.404 63.381 72.088 63.393 73.048C63.393 74.128 64.113 74.692 65.001 74.692C65.433 74.692 65.769 74.62 66.045 74.512ZM69.0951 67.48V72.604H69.1191C69.2511 72.364 69.3951 72.124 69.5391 71.896L70.7271 70.132H72.9231L70.8231 72.508L73.2231 76H70.9791L69.5631 73.588L69.0951 74.164V76H67.2711V67.48H69.0951ZM75.7162 76H73.8922V70.132H75.7162V76ZM74.8042 67.576C75.3922 67.576 75.7642 67.972 75.7762 68.5C75.7762 69.004 75.3922 69.412 74.7922 69.412C74.2162 69.412 73.8322 69.004 73.8442 68.5C73.8322 67.972 74.2162 67.576 74.8042 67.576ZM79.6709 76V68.02C80.2349 67.924 81.0269 67.852 82.1429 67.852C83.2709 67.852 84.0749 68.068 84.6149 68.5C85.1309 68.908 85.4789 69.58 85.4789 70.372C85.4789 71.164 85.2149 71.836 84.7349 72.292C84.1109 72.88 83.1869 73.144 82.1069 73.144C81.8669 73.144 81.6509 73.132 81.4829 73.108V76H79.6709ZM81.4829 69.304V71.692C81.6389 71.728 81.8309 71.74 82.0949 71.74C83.0669 71.74 83.6669 71.248 83.6669 70.42C83.6669 69.676 83.1509 69.232 82.2389 69.232C81.8669 69.232 81.6149 69.268 81.4829 69.304ZM89.0866 70C90.8866 70 92.0866 71.236 92.0866 73C92.0866 75.148 90.5626 76.132 88.9906 76.132C87.2746 76.132 85.9546 75.004 85.9546 73.108C85.9546 71.212 87.2026 70 89.0866 70ZM89.0386 71.296C88.1626 71.296 87.8386 72.196 87.8386 73.06C87.8386 74.068 88.2586 74.824 89.0386 74.824C89.7466 74.824 90.2026 74.116 90.2026 73.06C90.2026 72.184 89.8666 71.296 89.0386 71.296ZM97.4395 74.512L97.6555 75.856C97.3315 76 96.7195 76.12 96.0235 76.12C94.1275 76.12 92.9155 74.968 92.9155 73.12C92.9155 71.404 94.0915 70 96.2755 70C96.7555 70 97.2835 70.084 97.6675 70.228L97.3795 71.584C97.1635 71.488 96.8395 71.404 96.3595 71.404C95.3995 71.404 94.7755 72.088 94.7875 73.048C94.7875 74.128 95.5075 74.692 96.3955 74.692C96.8275 74.692 97.1635 74.62 97.4395 74.512ZM100.49 67.48V72.604H100.514C100.646 72.364 100.79 72.124 100.934 71.896L102.122 70.132H104.318L102.218 72.508L104.618 76H102.374L100.958 73.588L100.49 74.164V76H98.6656V67.48H100.49ZM107.111 76H105.287V70.132H107.111V76ZM106.199 67.576C106.787 67.576 107.159 67.972 107.171 68.5C107.171 69.004 106.787 69.412 106.187 69.412C105.611 69.412 105.227 69.004 105.239 68.5C105.227 67.972 105.611 67.576 106.199 67.576ZM109.516 76.132C108.892 76.132 108.448 75.664 108.448 75.028C108.448 74.38 108.892 73.912 109.528 73.912C110.164 73.912 110.596 74.368 110.596 75.028C110.596 75.664 110.164 76.132 109.516 76.132ZM118.383 73.924H116.067L115.491 76H113.595L116.067 67.912H118.467L120.975 76H119.007L118.383 73.924ZM116.331 72.556H118.119L117.615 70.84C117.471 70.36 117.327 69.76 117.207 69.28H117.183C117.063 69.76 116.943 70.372 116.811 70.84L116.331 72.556ZM121.927 76V67.48H123.751V76H121.927ZM125.232 76V67.48H127.056V76H125.232ZM136.686 74.344L136.962 75.772C136.626 75.94 135.87 76.12 134.886 76.12C132.09 76.12 130.65 74.38 130.65 72.076C130.65 69.316 132.618 67.78 135.066 67.78C136.014 67.78 136.734 67.972 137.058 68.14L136.686 69.592C136.314 69.436 135.798 69.292 135.15 69.292C133.698 69.292 132.57 70.168 132.57 71.968C132.57 73.588 133.53 74.608 135.162 74.608C135.714 74.608 136.326 74.488 136.686 74.344ZM140.673 70C142.473 70 143.673 71.236 143.673 73C143.673 75.148 142.149 76.132 140.577 76.132C138.861 76.132 137.541 75.004 137.541 73.108C137.541 71.212 138.789 70 140.673 70ZM140.625 71.296C139.749 71.296 139.425 72.196 139.425 73.06C139.425 74.068 139.845 74.824 140.625 74.824C141.333 74.824 141.789 74.116 141.789 73.06C141.789 72.184 141.453 71.296 140.625 71.296ZM144.802 78.376V72.1C144.802 71.332 144.778 70.672 144.754 70.132H146.338L146.422 70.948H146.446C146.878 70.324 147.55 70 148.402 70C149.686 70 150.838 71.116 150.838 72.988C150.838 75.124 149.482 76.132 148.174 76.132C147.466 76.132 146.914 75.844 146.65 75.46H146.626V78.376H144.802ZM146.626 72.676V73.48C146.626 73.624 146.638 73.756 146.662 73.864C146.782 74.356 147.202 74.728 147.73 74.728C148.522 74.728 148.99 74.068 148.99 73.072C148.99 72.136 148.57 71.428 147.754 71.428C147.238 71.428 146.782 71.812 146.662 72.352C146.638 72.448 146.626 72.568 146.626 72.676ZM151.209 70.132H153.237L154.113 73.012C154.209 73.36 154.329 73.792 154.401 74.104H154.437C154.521 73.792 154.617 73.348 154.701 73.012L155.421 70.132H157.377L156.009 73.996C155.169 76.324 154.605 77.26 153.945 77.848C153.309 78.4 152.637 78.592 152.181 78.652L151.797 77.104C152.025 77.068 152.313 76.96 152.589 76.792C152.865 76.648 153.165 76.36 153.345 76.06C153.405 75.976 153.441 75.88 153.441 75.796C153.441 75.736 153.429 75.64 153.357 75.496L151.209 70.132ZM158.15 76V72.064C158.15 71.2 158.126 70.636 158.102 70.132H159.674L159.734 71.212H159.782C160.082 70.36 160.802 70 161.366 70C161.534 70 161.618 70 161.75 70.024V71.74C161.618 71.716 161.462 71.692 161.258 71.692C160.586 71.692 160.13 72.052 160.01 72.616C159.986 72.736 159.974 72.88 159.974 73.024V76H158.15ZM164.533 76H162.709V70.132H164.533V76ZM163.621 67.576C164.209 67.576 164.581 67.972 164.593 68.5C164.593 69.004 164.209 69.412 163.609 69.412C163.033 69.412 162.649 69.004 162.661 68.5C162.649 67.972 163.033 67.576 163.621 67.576ZM170.022 70.132H171.606C171.582 70.504 171.558 70.996 171.558 71.872V75.148C171.558 76.276 171.33 77.2 170.67 77.788C170.022 78.34 169.146 78.508 168.282 78.508C167.514 78.508 166.698 78.352 166.17 78.052L166.53 76.672C166.902 76.888 167.55 77.116 168.234 77.116C169.098 77.116 169.758 76.648 169.758 75.568V75.184H169.734C169.386 75.676 168.822 75.952 168.15 75.952C166.698 75.952 165.666 74.776 165.666 73.084C165.666 71.2 166.89 70 168.33 70C169.134 70 169.638 70.348 169.938 70.828H169.962L170.022 70.132ZM169.734 73.384V72.52C169.734 72.4 169.722 72.28 169.698 72.184C169.566 71.704 169.218 71.38 168.714 71.38C168.054 71.38 167.514 71.98 167.514 73.048C167.514 73.924 167.946 74.608 168.714 74.608C169.182 74.608 169.554 74.296 169.674 73.864C169.722 73.732 169.734 73.54 169.734 73.384ZM173.021 76V67.48H174.845V70.828H174.869C175.061 70.576 175.301 70.384 175.589 70.228C175.853 70.084 176.201 70 176.537 70C177.701 70 178.589 70.804 178.589 72.568V76H176.765V72.772C176.765 72.004 176.501 71.476 175.817 71.476C175.337 71.476 175.037 71.788 174.905 72.112C174.857 72.232 174.845 72.388 174.845 72.52V76H173.021ZM180.234 68.86L182.022 68.452V70.132H183.33V71.476H182.022V73.6C182.022 74.308 182.19 74.632 182.742 74.632C182.97 74.632 183.15 74.608 183.282 74.584L183.294 75.964C183.054 76.06 182.622 76.12 182.106 76.12C181.518 76.12 181.026 75.916 180.738 75.616C180.402 75.268 180.234 74.704 180.234 73.876V71.476H179.454V70.132H180.234V68.86ZM184.052 75.712L184.376 74.404C184.712 74.608 185.408 74.848 185.948 74.848C186.5 74.848 186.728 74.656 186.728 74.356C186.728 74.056 186.548 73.912 185.864 73.684C184.652 73.276 184.184 72.616 184.196 71.92C184.196 70.828 185.132 70 186.584 70C187.268 70 187.88 70.156 188.24 70.336L187.916 71.596C187.652 71.452 187.148 71.26 186.644 71.26C186.2 71.26 185.948 71.44 185.948 71.74C185.948 72.016 186.176 72.16 186.896 72.412C188.012 72.796 188.48 73.36 188.492 74.224C188.492 75.316 187.628 76.12 185.948 76.12C185.18 76.12 184.496 75.952 184.052 75.712ZM192.017 76V72.064C192.017 71.2 191.993 70.636 191.969 70.132H193.541L193.601 71.212H193.649C193.949 70.36 194.669 70 195.233 70C195.401 70 195.485 70 195.617 70.024V71.74C195.485 71.716 195.329 71.692 195.125 71.692C194.453 71.692 193.997 72.052 193.877 72.616C193.853 72.736 193.841 72.88 193.841 73.024V76H192.017ZM201.666 73.648H197.886C197.946 74.404 198.69 74.764 199.542 74.764C200.166 74.764 200.67 74.68 201.162 74.524L201.402 75.76C200.802 76 200.07 76.12 199.278 76.12C197.286 76.12 196.146 74.968 196.146 73.132C196.146 71.644 197.07 70 199.11 70C201.006 70 201.726 71.476 201.726 72.928C201.726 73.24 201.69 73.516 201.666 73.648ZM197.874 72.4H200.034C200.034 71.956 199.842 71.212 199.002 71.212C198.234 71.212 197.922 71.908 197.874 72.4ZM202.486 75.712L202.81 74.404C203.146 74.608 203.842 74.848 204.382 74.848C204.934 74.848 205.162 74.656 205.162 74.356C205.162 74.056 204.982 73.912 204.298 73.684C203.086 73.276 202.618 72.616 202.63 71.92C202.63 70.828 203.566 70 205.018 70C205.702 70 206.314 70.156 206.674 70.336L206.35 71.596C206.086 71.452 205.582 71.26 205.078 71.26C204.634 71.26 204.382 71.44 204.382 71.74C204.382 72.016 204.61 72.16 205.33 72.412C206.446 72.796 206.914 73.36 206.926 74.224C206.926 75.316 206.062 76.12 204.382 76.12C203.614 76.12 202.93 75.952 202.486 75.712ZM213.209 73.648H209.429C209.489 74.404 210.233 74.764 211.085 74.764C211.709 74.764 212.213 74.68 212.705 74.524L212.945 75.76C212.345 76 211.613 76.12 210.821 76.12C208.829 76.12 207.689 74.968 207.689 73.132C207.689 71.644 208.613 70 210.653 70C212.549 70 213.269 71.476 213.269 72.928C213.269 73.24 213.233 73.516 213.209 73.648ZM209.417 72.4H211.577C211.577 71.956 211.385 71.212 210.545 71.212C209.777 71.212 209.465 71.908 209.417 72.4ZM214.365 76V72.064C214.365 71.2 214.341 70.636 214.317 70.132H215.889L215.949 71.212H215.997C216.297 70.36 217.017 70 217.581 70C217.749 70 217.833 70 217.965 70.024V71.74C217.833 71.716 217.677 71.692 217.473 71.692C216.801 71.692 216.345 72.052 216.225 72.616C216.201 72.736 216.189 72.88 216.189 73.024V76H214.365ZM218.51 70.132H220.49L221.282 72.856C221.426 73.348 221.534 73.816 221.618 74.284H221.654C221.75 73.804 221.846 73.36 221.978 72.856L222.734 70.132H224.654L222.47 76H220.646L218.51 70.132ZM230.506 73.648H226.726C226.786 74.404 227.53 74.764 228.382 74.764C229.006 74.764 229.51 74.68 230.002 74.524L230.242 75.76C229.642 76 228.91 76.12 228.118 76.12C226.126 76.12 224.986 74.968 224.986 73.132C224.986 71.644 225.91 70 227.95 70C229.846 70 230.566 71.476 230.566 72.928C230.566 73.24 230.53 73.516 230.506 73.648ZM226.714 72.4H228.874C228.874 71.956 228.682 71.212 227.842 71.212C227.074 71.212 226.762 71.908 226.714 72.4ZM235.526 67.48H237.35V74.248C237.35 74.908 237.374 75.604 237.398 76H235.778L235.694 75.136H235.67C235.298 75.796 234.59 76.132 233.834 76.132C232.442 76.132 231.326 74.944 231.326 73.12C231.314 71.14 232.55 70 233.954 70C234.674 70 235.238 70.252 235.502 70.66H235.526V67.48ZM235.526 73.384V72.616C235.526 72.52 235.514 72.388 235.502 72.292C235.394 71.8 234.998 71.392 234.434 71.392C233.606 71.392 233.174 72.136 233.174 73.06C233.174 74.056 233.666 74.68 234.422 74.68C234.95 74.68 235.37 74.32 235.478 73.804C235.514 73.672 235.526 73.54 235.526 73.384ZM239.641 76.132C239.017 76.132 238.573 75.664 238.573 75.028C238.573 74.38 239.017 73.912 239.653 73.912C240.289 73.912 240.721 74.368 240.721 75.028C240.721 75.664 240.289 76.132 239.641 76.132Z" fill="#3E3E3E"/>
<defs>
<clipPath id="clip0_22_103">
<rect width="15" height="15" fill="white" transform="translate(0 65)"/>
</clipPath>
</defs>
</svg>
