<svg width="76" height="85" viewBox="0 0 76 85" fill="none" xmlns="http://www.w3.org/2000/svg">
<path d="M37.708 4.84C45.2298 4.84 52.3006 7.7682 57.6202 13.0878C62.9398 18.4074 65.868 25.4782 65.868 33C65.868 40.5218 62.9398 47.5926 57.6202 52.9122C52.3006 58.2318 45.2298 61.16 37.708 61.16C30.1862 61.16 23.1154 58.2318 17.7958 52.9122C12.4762 47.5926 9.548 40.5218 9.548 33C9.548 25.4782 12.4762 18.4074 17.7958 13.0878C23.1154 7.7682 30.1862 4.84 37.708 4.84ZM37.708 0C19.4832 0 4.708 14.7752 4.708 33C4.708 51.2248 19.4832 66 37.708 66C55.9328 66 70.708 51.2248 70.708 33C70.708 14.7752 55.9328 0 37.708 0Z" fill="#3E3E3E"/>
<path d="M0 73.6252C0.7524 73.502 1.8744 73.4096 3.1174 73.4096C4.653 73.4096 5.7288 73.6406 6.4658 74.2236C7.0796 74.7142 7.4184 75.438 7.4184 76.3884C7.4184 77.7084 6.4812 78.6148 5.5902 78.9382V78.9844C6.3118 79.277 6.7122 79.9678 6.9718 80.9204C7.2952 82.0864 7.6164 83.4394 7.8166 83.8376H5.4208C5.2514 83.545 5.0072 82.7002 4.6992 81.4264C4.422 80.1372 3.9776 79.783 3.025 79.7676H2.3188V83.8376H0V73.6252ZM2.321 78.078H3.2428C4.411 78.078 5.1018 77.495 5.1018 76.5886C5.1018 75.636 4.4572 75.1608 3.3814 75.1454C2.8138 75.1454 2.4904 75.1916 2.321 75.2224V78.078Z" fill="#3E3E3E"/>
<path d="M16.4494 79.9986C16.4494 82.7486 14.498 84.007 12.4872 84.007C10.2916 84.007 8.602 82.5638 8.602 80.1372C8.602 77.7106 10.1992 76.1596 12.6104 76.1596C14.9138 76.1596 16.4494 77.7414 16.4494 79.9986ZM11.0132 80.0756C11.0132 81.3648 11.55 82.3328 12.5488 82.3328C13.4552 82.3328 14.0382 81.4264 14.0382 80.0756C14.0382 78.9536 13.6092 77.8184 12.5488 77.8184C11.4268 77.8184 11.0132 78.969 11.0132 80.0756Z" fill="#3E3E3E"/>
<path d="M23.5752 83.655C23.1594 83.8398 22.3762 83.9938 21.4874 83.9938C19.0608 83.9938 17.5098 82.5198 17.5098 80.1548C17.5098 77.9592 19.0146 76.1618 21.8108 76.1618C22.4246 76.1618 23.1 76.2696 23.5928 76.4544L23.2232 78.1902C22.946 78.067 22.5324 77.9592 21.9186 77.9592C20.691 77.9592 19.8924 78.8348 19.9056 80.0624C19.9056 81.444 20.8274 82.1656 21.9626 82.1656C22.5148 82.1656 22.946 82.0732 23.298 81.9346L23.5752 83.655Z" fill="#3E3E3E"/>
<path d="M27.1986 79.4926H27.2294C27.3988 79.1846 27.5836 78.8788 27.7662 78.5862L29.2864 76.329H32.0958L29.4074 79.3694L32.4786 83.8376H29.6076L27.7948 80.751L27.1964 81.488V83.8376H24.8644V72.9344H27.1986V79.4926Z" fill="#3E3E3E"/>
<path d="M35.7544 74.239C35.7544 74.8836 35.2638 75.405 34.496 75.405C33.759 75.405 33.2684 74.8836 33.2816 74.239C33.2662 73.5636 33.7568 73.0554 34.5092 73.0554C35.2616 73.0576 35.739 73.5636 35.7544 74.239ZM33.3432 83.8376V76.3268H35.6774V83.8376H33.3432Z" fill="#3E3E3E"/>
<path d="M40.7286 73.6252C41.4502 73.502 42.4644 73.4096 43.8922 73.4096C45.3354 73.4096 46.365 73.6868 47.0558 74.239C47.7158 74.7604 48.1624 75.6206 48.1624 76.6348C48.1624 77.649 47.8236 78.5092 47.2098 79.0922C46.4112 79.8446 45.2298 80.1834 43.846 80.1834C43.538 80.1834 43.263 80.168 43.0474 80.1372V83.8376H40.7286V73.6252ZM43.0496 78.3244C43.2498 78.3706 43.494 78.386 43.8328 78.386C45.0758 78.386 45.8436 77.7568 45.8436 76.6964C45.8436 75.7438 45.1836 75.1762 44.0154 75.1762C43.5402 75.1762 43.2168 75.2224 43.0474 75.2686V78.3244H43.0496Z" fill="#3E3E3E"/>
<path d="M56.6258 79.9986C56.6258 82.7486 54.6744 84.007 52.6636 84.007C50.468 84.007 48.7784 82.5638 48.7784 80.1372C48.7784 77.7106 50.3756 76.1596 52.7868 76.1596C55.0902 76.1596 56.6258 77.7414 56.6258 79.9986ZM51.1896 80.0756C51.1896 81.3648 51.7264 82.3328 52.7252 82.3328C53.6316 82.3328 54.2146 81.4264 54.2146 80.0756C54.2146 78.9536 53.7834 77.8184 52.7252 77.8184C51.6032 77.8184 51.1896 78.969 51.1896 80.0756Z" fill="#3E3E3E"/>
<path d="M63.7516 83.655C63.338 83.8398 62.5548 83.9938 61.6638 83.9938C59.2372 83.9938 57.6862 82.5198 57.6862 80.1548C57.6862 77.9592 59.191 76.1618 61.9872 76.1618C62.601 76.1618 63.2764 76.2696 63.7692 76.4544L63.3996 78.1902C63.1224 78.067 62.7088 77.9592 62.095 77.9592C60.8674 77.9592 60.0688 78.8348 60.0842 80.0624C60.0842 81.444 61.006 82.1656 62.1412 82.1656C62.6934 82.1656 63.1246 82.0732 63.4766 81.9346L63.7516 83.655Z" fill="#3E3E3E"/>
<path d="M67.375 79.4926H67.4058C67.5752 79.1846 67.76 78.8788 67.9426 78.5862L69.4628 76.329H72.2744L69.586 79.3694L72.6572 83.8376H69.7862L67.9734 80.751L67.375 81.488V83.8376H65.0408V72.9344H67.375V79.4926Z" fill="#3E3E3E"/>
<path d="M75.9308 74.239C75.9308 74.8836 75.4402 75.405 74.6724 75.405C73.9354 75.405 73.4448 74.8836 73.4602 74.239C73.4448 73.5636 73.9354 73.0554 74.6878 73.0554C75.438 73.0576 75.9132 73.5636 75.9308 74.239ZM73.5196 83.8376V76.3268H75.8538V83.8376H73.5196Z" fill="#3E3E3E"/>
<path d="M14.8742 18.3612C17.039 18.007 20.262 17.743 23.8392 17.743C28.2546 17.743 31.3456 18.4052 33.4664 20.0838C35.233 21.4962 36.2032 23.573 36.2032 26.3098C36.2032 30.107 33.5104 32.714 30.9474 33.6402V33.7722C33.022 34.6104 34.1704 36.5992 34.9228 39.336C35.8512 42.6932 36.7774 46.5784 37.3516 47.7268H30.4634C29.9772 46.8886 29.271 44.4598 28.3888 40.7946C27.5946 37.0854 26.3142 36.069 23.5752 36.025H21.5446V47.7268H14.8764V18.3612H14.8742ZM21.5424 31.1674H24.1912C27.5484 31.1674 29.535 29.4888 29.535 26.884C29.535 24.145 27.6804 22.7766 24.5894 22.7326C22.9548 22.7326 22.0286 22.8646 21.5424 22.9526V31.1674Z" fill="#3E3E3E"/>
<path d="M59.6464 47.729H52.9782V37.0854C52.36 37.1734 51.5658 37.2174 50.6814 37.2174C46.706 37.2174 43.307 36.245 41.0102 34.0824C39.2436 32.4038 38.2712 29.931 38.2712 27.016C38.2712 24.101 39.5516 21.6282 41.4502 20.1278C43.4368 18.5372 46.3958 17.743 50.5472 17.743C54.6546 17.743 57.5696 18.007 59.6442 18.3612V47.729H59.6464ZM52.9782 23.0868C52.492 22.9548 51.5658 22.8228 50.1952 22.8228C46.838 22.8228 44.9394 24.4574 44.9394 27.1942C44.9394 30.2412 47.1482 32.0518 50.7232 32.0518C51.6956 32.0518 52.4018 32.0078 52.976 31.8758V23.0868H52.9782Z" fill="#3E3E3E"/>
</svg>
