<svg width="15" height="15" viewBox="0 0 15 15" fill="none" xmlns="http://www.w3.org/2000/svg">
<path d="M7.60738 0.2146C5.59965 0.2146 5.3479 0.22311 4.5594 0.259087C3.77254 0.295005 3.23515 0.419956 2.76489 0.602717C2.27876 0.79164 1.8665 1.04442 1.45552 1.45539C1.04454 1.86637 0.791763 2.27864 0.60284 2.76477C0.420079 3.23499 0.295128 3.77239 0.25921 4.55925C0.223233 5.34775 0.214752 5.5995 0.214752 7.60722C0.214752 9.61492 0.223233 9.86667 0.25921 10.6552C0.295128 11.442 0.420079 11.9794 0.60284 12.4497C0.791763 12.9358 1.04454 13.348 1.45552 13.7591C1.8665 14.17 2.27876 14.4228 2.76489 14.6117C3.23515 14.7945 3.77254 14.9194 4.5594 14.9553C5.3479 14.9913 5.59965 14.9998 7.60738 14.9998C9.61508 14.9998 9.86683 14.9913 10.6553 14.9553C11.4422 14.9194 11.9796 14.7945 12.4498 14.6117C12.9359 14.4228 13.3482 14.17 13.7592 13.7591C14.1702 13.348 14.423 12.9358 14.6119 12.4497C14.7946 11.9794 14.9196 11.442 14.9555 10.6552C14.9915 9.86667 15 9.61492 15 7.60722C15 5.5995 14.9915 5.34775 14.9555 4.55925C14.9196 3.77239 14.7946 3.23499 14.6119 2.76477C14.423 2.27864 14.1702 1.86637 13.7592 1.45539C13.3482 1.04442 12.9359 0.79164 12.4498 0.602717C11.9796 0.419956 11.4422 0.295005 10.6553 0.259087C9.86683 0.22311 9.61508 0.2146 7.60738 0.2146ZM7.60738 1.54663C9.58127 1.54663 9.81509 1.55414 10.5946 1.58971C11.3154 1.6226 11.7068 1.74303 11.9673 1.84425C12.3124 1.97835 12.5586 2.13858 12.8173 2.39725C13.076 2.65593 13.2362 2.90222 13.3703 3.24726C13.4716 3.50776 13.592 3.89919 13.6249 4.61996C13.6604 5.39948 13.668 5.6333 13.668 7.60722C13.668 9.58112 13.6604 9.81494 13.6249 10.5945C13.592 11.3152 13.4716 11.7067 13.3703 11.9672C13.2362 12.3122 13.076 12.5585 12.8173 12.8172C12.5586 13.0759 12.3124 13.2361 11.9673 13.3702C11.7068 13.4714 11.3154 13.5918 10.5946 13.6247C9.81521 13.6603 9.58142 13.6678 7.60738 13.6678C5.63331 13.6678 5.39955 13.6603 4.62011 13.6247C3.89934 13.5918 3.50791 13.4714 3.24741 13.3702C2.90234 13.2361 2.65608 13.0759 2.39738 12.8172C2.1387 12.5585 1.97848 12.3122 1.8444 11.9672C1.74316 11.7067 1.62273 11.3152 1.58983 10.5945C1.55426 9.81494 1.54675 9.58112 1.54675 7.60722C1.54675 5.6333 1.55426 5.39948 1.58983 4.61996C1.62273 3.89919 1.74316 3.50776 1.8444 3.24726C1.97848 2.90222 2.1387 2.65593 2.39738 2.39725C2.65608 2.13858 2.90234 1.97835 3.24741 1.84425C3.50791 1.74303 3.89934 1.6226 4.62011 1.58971C5.39963 1.55414 5.63346 1.54663 7.60738 1.54663Z" fill="#EEEDE9"/>
<path d="M12.4407 3.66127C12.4407 4.15121 12.0435 4.54837 11.5535 4.54837C11.0636 4.54837 10.6664 4.15121 10.6664 3.66127C10.6664 3.17133 11.0636 2.77417 11.5535 2.77417C12.0435 2.77417 12.4407 3.17133 12.4407 3.66127Z" fill="#EEEDE9"/>
<path d="M7.60737 10.0717C6.24641 10.0717 5.14316 8.96843 5.14316 7.6075C5.14316 6.24653 6.24641 5.14328 7.60737 5.14328C8.96831 5.14328 10.0716 6.24653 10.0716 7.6075C10.0716 8.96843 8.96831 10.0717 7.60737 10.0717ZM7.60737 3.81128C5.51076 3.81128 3.81116 5.51088 3.81116 7.6075C3.81116 9.70408 5.51076 11.4037 7.60737 11.4037C9.70396 11.4037 11.4036 9.70408 11.4036 7.6075C11.4036 5.51088 9.70396 3.81128 7.60737 3.81128Z" fill="#EEEDE9"/>
</svg>
