<svg width="15" height="12" viewBox="0 0 15 12" fill="none" xmlns="http://www.w3.org/2000/svg">
<path d="M4.71721 12C10.3776 12 13.4736 7.38286 13.4736 3.37886C13.4736 3.24773 13.4736 3.11718 13.4646 2.98721C14.0669 2.55826 14.5868 2.02721 15 1.41882C14.4383 1.66386 13.8425 1.82452 13.2324 1.89554C13.8747 1.51698 14.3557 0.921116 14.5854 0.219621C13.9813 0.572532 13.3204 0.821285 12.6312 0.955094C12.0493 0.345873 11.2366 0 10.3873 0C8.69736 0 7.30685 1.36907 7.30685 3.03281C7.30685 3.26362 7.33362 3.49371 7.38659 3.71853C4.91341 3.59649 2.60593 2.44473 1.04399 0.552802C0.231767 1.92943 0.652031 3.71345 1.99679 4.59753C1.50709 4.58325 1.02791 4.45316 0.6 4.21828V4.25668C0.60041 5.69353 1.63849 6.9424 3.06899 7.22689C2.61595 7.34853 2.14049 7.3663 1.67941 7.27887C2.08157 8.51009 3.24126 9.35878 4.55461 9.38307C3.46506 10.2261 2.11837 10.684 0.732598 10.6827C0.487734 10.6822 0.243105 10.6676 0 10.639C1.40725 11.5281 3.04512 11.9998 4.71721 11.9976" fill="#EEEDE9"/>
</svg>
